# Blender v2.93.1 OBJ File: 'Fence_Low poly.blend'
# www.blender.org
mtllib Cerca_Low poly.mtl
o Fence_Cube.004
v 0.255236 0.990349 -3.004019
v 0.255236 0.990349 3.019669
v 0.089510 0.990349 3.019669
v 0.089510 0.990349 -3.004020
v 0.255236 1.341869 -3.004018
v 0.255236 1.341869 3.019671
v 0.089510 1.341869 3.019668
v 0.089510 1.341869 -3.004019
v 0.091001 2.991286 -2.580994
v 0.091001 0.009869 -2.580994
v -0.074725 0.009869 -2.580994
v -0.074725 2.991286 -2.580994
v 0.091002 2.991285 -2.009683
v 0.091001 0.009867 -2.009683
v -0.074725 0.009869 -2.009683
v -0.074725 2.991286 -2.009683
v 0.287115 2.449234 -2.364877
v 0.252987 2.414609 -2.374099
v 0.308365 2.411947 -2.329720
v 0.285802 2.389738 -2.346884
v 0.282697 2.378199 -2.312774
v 0.252987 2.372586 -2.318001
v 0.307914 2.406059 -2.310160
v 0.313018 2.422050 -2.312774
v 0.285802 2.389738 -2.278664
v 0.252987 2.382518 -2.275754
v 0.287115 2.449234 -2.260671
v 0.313914 2.431337 -2.303024
v 0.252987 2.451746 -2.251449
v 0.308365 2.454408 -2.295829
v 0.285347 2.479388 -2.285806
v 0.312963 2.444305 -2.321833
v 0.282697 2.488157 -2.312774
v 0.252987 2.493770 -2.307547
v 0.307914 2.460297 -2.315388
v 0.285347 2.479388 -2.339742
v 0.252987 2.483837 -2.349795
v 0.287115 2.137731 -2.364877
v 0.308365 2.132555 -2.329720
v 0.285347 2.107576 -2.339742
v 0.252987 2.103127 -2.349795
v 0.291795 2.106388 -2.312774
v 0.252990 2.090658 -2.312774
v 0.307914 2.126667 -2.310160
v 0.285347 2.107576 -2.285806
v 0.313018 2.142659 -2.312774
v 0.252987 2.103127 -2.275754
v 0.287115 2.137731 -2.260671
v 0.313914 2.151945 -2.303024
v 0.252987 2.172355 -2.251449
v 0.308365 2.175017 -2.295829
v 0.285802 2.197226 -2.278664
v 0.312963 2.164914 -2.321833
v 0.282697 2.208765 -2.312774
v 0.307914 2.180906 -2.315388
v 0.252987 2.215293 -2.312774
v 0.285802 2.197226 -2.346884
v 0.252987 2.172355 -2.374099
v 0.276803 1.063393 -2.349133
v 0.275569 1.042350 -2.331593
v 0.291318 1.055672 -2.314598
v 0.273720 1.036231 -2.312774
v 0.275569 1.042350 -2.293955
v 0.252987 1.031370 -2.318415
v 0.294717 1.065360 -2.307164
v 0.276803 1.063393 -2.276414
v 0.252987 1.061640 -2.269979
v 0.295505 1.073313 -2.319578
v 0.275887 1.104911 -2.288971
v 0.291751 1.092438 -2.308032
v 0.273720 1.112964 -2.312774
v 0.252987 1.117825 -2.307133
v 0.294695 1.084469 -2.315372
v 0.275887 1.104911 -2.336577
v 0.252987 1.087555 -2.355569
v 0.276803 1.258363 -2.349133
v 0.275569 1.237320 -2.331593
v 0.291318 1.250643 -2.314598
v 0.273720 1.231201 -2.312774
v 0.275569 1.237320 -2.293955
v 0.252987 1.226340 -2.318415
v 0.294717 1.260330 -2.307164
v 0.276803 1.258363 -2.276414
v 0.252987 1.256610 -2.269979
v 0.295505 1.268283 -2.319578
v 0.275887 1.299882 -2.288971
v 0.291751 1.287409 -2.308032
v 0.273720 1.307934 -2.312774
v 0.252987 1.312795 -2.307133
v 0.294695 1.279439 -2.315372
v 0.275887 1.299882 -2.336577
v 0.252987 1.282525 -2.355569
v 0.276803 1.280772 2.274192
v 0.291632 1.254752 2.298727
v 0.275887 1.239253 2.286749
v 0.273720 1.231201 2.310552
v 0.252987 1.226340 2.304911
v 0.291751 1.251726 2.315294
v 0.275887 1.239253 2.334355
v 0.276803 1.280772 2.346912
v 0.252987 1.256610 2.353347
v 0.295510 1.266289 2.309557
v 0.275569 1.301815 2.329371
v 0.294841 1.277333 2.316874
v 0.291318 1.288492 2.312376
v 0.273720 1.307934 2.310552
v 0.275569 1.301815 2.291732
v 0.252987 1.312795 2.316192
v 0.292374 1.281655 2.296405
v 0.252987 1.282525 2.267757
v 0.276803 1.063393 2.274192
v 0.275569 1.042350 2.291732
v 0.273720 1.036231 2.310552
v 0.291318 1.055672 2.312376
v 0.275569 1.042350 2.329371
v 0.252987 1.031370 2.304911
v 0.294583 1.064452 2.306843
v 0.276803 1.063393 2.346912
v 0.252987 1.061640 2.353347
v 0.295505 1.073313 2.317356
v 0.275887 1.104911 2.334355
v 0.294841 1.082363 2.304230
v 0.273720 1.112964 2.310552
v 0.292069 1.092363 2.312975
v 0.252987 1.117825 2.316192
v 0.275887 1.104911 2.286749
v 0.252987 1.087555 2.267757
v 0.287115 2.137731 2.258449
v 0.285347 2.107576 2.283584
v 0.252987 2.103127 2.273531
v 0.291795 2.106388 2.310552
v 0.252990 2.090658 2.310552
v 0.312454 2.139162 2.303473
v 0.307915 2.126667 2.313166
v 0.285802 2.110346 2.344662
v 0.252987 2.103127 2.347572
v 0.311928 2.153565 2.330917
v 0.287115 2.169842 2.362655
v 0.313904 2.155166 2.300893
v 0.252987 2.172355 2.371877
v 0.285347 2.199997 2.337520
v 0.312911 2.165330 2.312280
v 0.282697 2.208765 2.310552
v 0.308243 2.180620 2.310552
v 0.252987 2.215293 2.310552
v 0.285802 2.197226 2.276442
v 0.252987 2.172355 2.249227
v 0.287115 2.417122 2.258449
v 0.252987 2.414609 2.249227
v 0.308365 2.411947 2.293606
v 0.285347 2.386967 2.283584
v 0.282697 2.378199 2.310552
v 0.312911 2.421633 2.308824
v 0.307914 2.406059 2.313166
v 0.252987 2.371671 2.310552
v 0.285802 2.389738 2.344662
v 0.311928 2.432956 2.330917
v 0.287115 2.449234 2.362655
v 0.252987 2.414609 2.371877
v 0.313904 2.434557 2.300893
v 0.252987 2.483837 2.347572
v 0.285347 2.479388 2.337520
v 0.312911 2.444722 2.312280
v 0.291795 2.480576 2.310552
v 0.252990 2.496306 2.310552
v 0.308243 2.460011 2.310552
v 0.285802 2.476618 2.276442
v 0.252987 2.483837 2.273531
v 0.091001 2.991286 2.010746
v 0.091001 0.009869 2.010746
v -0.074725 0.009869 2.010746
v -0.074725 2.991286 2.010746
v 0.091002 2.991285 2.582057
v 0.091001 0.009867 2.582057
v -0.074725 0.009869 2.582057
v -0.074725 2.991286 2.582057
v 0.255236 2.012438 -3.004019
v 0.255236 2.012438 3.019669
v 0.089510 2.012438 3.019669
v 0.089510 2.012438 -3.004020
v 0.255236 2.583748 -3.004018
v 0.255236 2.583748 3.019671
v 0.089510 2.583748 3.019668
v 0.089510 2.583748 -3.004019
vt 0.375996 0.982344
vt 0.343744 0.982345
vt 0.343744 0.456856
vt 0.375996 0.456856
vt 0.297876 0.456856
vt 0.297876 0.982345
vt 0.266694 0.982345
vt 0.266694 0.456856
vt 0.363995 0.304718
vt 0.409261 0.304718
vt 0.409261 0.435533
vt 0.363995 0.435533
vt 0.422746 0.982344
vt 0.422746 0.456856
vt 0.318693 0.304718
vt 0.363959 0.304718
vt 0.363959 0.435533
vt 0.318693 0.435533
vt 0.562508 0.508447
vt 0.562508 0.967302
vt 0.514980 0.967302
vt 0.514980 0.508448
vt 0.655738 0.508447
vt 0.704545 0.508447
vt 0.704545 0.967302
vt 0.655738 0.967302
vt 0.797961 0.508447
vt 0.797961 0.967302
vt 0.706904 0.301987
vt 0.792479 0.301987
vt 0.792479 0.486124
vt 0.706904 0.486124
vt 0.621260 0.301987
vt 0.706836 0.301987
vt 0.706836 0.486124
vt 0.621260 0.486124
vt 0.562508 0.508447
vt 0.562508 0.967302
vt 0.514980 0.967302
vt 0.514980 0.508448
vt 0.655738 0.508447
vt 0.704545 0.508447
vt 0.704545 0.967302
vt 0.655738 0.967302
vt 0.797961 0.508447
vt 0.797961 0.967302
vt 0.706904 0.301987
vt 0.792479 0.301987
vt 0.792479 0.486124
vt 0.706904 0.486124
vt 0.621260 0.301987
vt 0.706836 0.301987
vt 0.706836 0.486124
vt 0.621260 0.486124
vt 0.939116 0.969401
vt 0.908513 0.969401
vt 0.908512 0.249313
vt 0.939116 0.249313
vt 0.860380 0.249313
vt 0.860380 0.969402
vt 0.829978 0.969402
vt 0.829978 0.249313
vt 0.905733 0.019183
vt 0.982572 0.019183
vt 0.982572 0.223362
vt 0.905733 0.223362
vt 0.984786 0.249313
vt 0.984786 0.969401
vt 0.828833 0.019183
vt 0.905672 0.019183
vt 0.905672 0.223362
vt 0.828833 0.223362
vt 0.065730 0.931160
vt 0.069929 0.930326
vt 0.073216 0.932104
vt 0.075512 0.938050
vt 0.071902 0.972629
vt 0.084704 0.948575
vt 0.110269 0.943349
vt 0.078910 0.932724
vt 0.091197 0.923567
vt 0.093615 0.937570
vt 0.068182 0.908710
vt 0.063461 0.924503
vt 0.052819 0.914866
vt 0.060063 0.929829
vt 0.046941 0.937506
vt 0.045357 0.924984
vt 0.057371 0.950356
vt 0.029203 0.944214
vt 0.046721 0.965883
vt 0.070790 0.953843
vt 0.097906 0.962620
vt 0.065730 0.931160
vt 0.069929 0.930326
vt 0.073216 0.932104
vt 0.075511 0.938050
vt 0.086154 0.947687
vt 0.088553 0.936155
vt 0.110878 0.942366
vt 0.078910 0.932724
vt 0.092032 0.925047
vt 0.081602 0.912197
vt 0.067071 0.889925
vt 0.109769 0.918340
vt 0.054269 0.913979
vt 0.028760 0.916894
vt 0.063461 0.924503
vt 0.060063 0.929829
vt 0.047775 0.938986
vt 0.045357 0.924984
vt 0.046721 0.965883
vt 0.070790 0.953843
vt 0.112266 0.938855
vt 0.069444 0.932326
vt 0.073824 0.931257
vt 0.078515 0.934341
vt 0.086154 0.947688
vt 0.093615 0.937570
vt 0.081602 0.912197
vt 0.092032 0.925047
vt 0.065044 0.930715
vt 0.061363 0.927148
vt 0.054269 0.913979
vt 0.045357 0.924983
vt 0.047775 0.938986
vt 0.026707 0.923699
vt 0.046721 0.965883
vt 0.070790 0.953843
vt 0.112266 0.938855
vt 0.069444 0.932326
vt 0.073824 0.931257
vt 0.078515 0.934341
vt 0.086154 0.947688
vt 0.093615 0.937570
vt 0.081602 0.912197
vt 0.092032 0.925047
vt 0.065044 0.930715
vt 0.061363 0.927148
vt 0.054269 0.913979
vt 0.045357 0.924984
vt 0.047775 0.938986
vt 0.026707 0.923699
vt 0.062215 0.935720
vt 0.070991 0.931782
vt 0.075511 0.938050
vt 0.078596 0.931358
vt 0.091198 0.923567
vt 0.093615 0.937570
vt 0.092252 0.896671
vt 0.112266 0.938855
vt 0.066078 0.929694
vt 0.068182 0.908710
vt 0.026707 0.923699
vt 0.052819 0.914866
vt 0.060457 0.928213
vt 0.045357 0.924984
vt 0.057371 0.950356
vt 0.046941 0.937506
vt 0.046721 0.965883
vt 0.070790 0.953843
vt 0.112266 0.938855
vt 0.065730 0.931160
vt 0.069929 0.930326
vt 0.073696 0.933483
vt 0.086154 0.947688
vt 0.078910 0.932724
vt 0.092032 0.925047
vt 0.093615 0.937570
vt 0.054269 0.913979
vt 0.061202 0.928044
vt 0.045357 0.924984
vt 0.047775 0.938986
vt 0.026707 0.923699
vt 0.046721 0.965883
vt 0.070790 0.953843
vt 0.097906 0.962620
vt 0.073762 0.933568
vt 0.086154 0.947688
vt 0.088553 0.936155
vt 0.110878 0.942366
vt 0.078910 0.932724
vt 0.091198 0.923567
vt 0.069116 0.931885
vt 0.071179 0.925296
vt 0.068182 0.908710
vt 0.065676 0.930180
vt 0.060309 0.929387
vt 0.052819 0.914866
vt 0.045357 0.924984
vt 0.047775 0.938986
vt 0.028760 0.916894
vt 0.069116 0.931885
vt 0.073296 0.932373
vt 0.075511 0.938050
vt 0.070790 0.953843
vt 0.086154 0.947687
vt 0.078910 0.932724
vt 0.091198 0.923567
vt 0.093615 0.937570
vt 0.092252 0.896671
vt 0.111948 0.939181
vt 0.071179 0.925296
vt 0.068182 0.908710
vt 0.041066 0.899934
vt 0.065676 0.930180
vt 0.060309 0.929387
vt 0.052819 0.914866
vt 0.050420 0.926398
vt 0.028094 0.920187
vt 0.047775 0.938986
vt 0.109769 0.918340
vt 0.067071 0.889925
vt 0.028703 0.919205
vt 0.092252 0.896671
vt 0.092252 0.896671
vt 0.084704 0.948575
vt 0.046721 0.965883
vt 0.081602 0.912197
vt 0.092252 0.896671
vt 0.067071 0.889925
vt 0.109769 0.918340
vt 0.071902 0.972629
vt 0.029203 0.944213
vn 0.0000 -1.0000 0.0000
vn 0.0000 1.0000 0.0000
vn 1.0000 0.0000 0.0000
vn -0.0000 -0.0000 1.0000
vn -1.0000 -0.0000 -0.0000
vn 0.0000 0.0000 -1.0000
vn 0.9476 0.1545 -0.2796
vn 0.9572 -0.0664 0.2818
vn 0.9824 -0.1849 -0.0263
vn 0.8748 -0.3240 -0.3602
vn 0.2152 -0.2811 -0.9352
vn 0.4759 -0.6628 -0.5781
vn 0.1320 -0.9822 -0.1331
vn 0.8661 -0.4868 0.1136
vn 0.5097 -0.6109 0.6058
vn 0.4647 -0.8854 0.0016
vn 0.4888 0.2042 0.8481
vn 0.8801 0.3471 0.3240
vn 0.4440 0.7557 0.4814
vn 0.8609 0.4987 -0.1010
vn 0.5249 0.7324 -0.4337
vn 0.4614 0.8871 -0.0010
vn 0.4980 0.2237 -0.8378
vn 0.1654 0.7650 -0.6224
vn 0.2060 0.2892 -0.9348
vn 0.4915 -0.2100 -0.8451
vn 0.1879 -0.7433 -0.6420
vn 0.9462 0.1765 -0.2711
vn 0.9563 -0.0402 0.2895
vn 0.8840 -0.3167 -0.3438
vn 0.5129 -0.7454 -0.4257
vn 0.6146 -0.7888 -0.0022
vn 0.2992 -0.9542 0.0000
vn 0.8717 -0.4751 0.1197
vn 0.5425 -0.7187 0.4349
vn 0.5009 -0.2240 0.8360
vn 0.2060 0.2892 0.9348
vn 0.1879 -0.7433 0.6420
vn 0.4550 0.6756 0.5801
vn 0.0441 0.9990 0.0000
vn 0.8672 0.3442 0.3597
vn 0.8610 0.5031 -0.0746
vn 0.4531 0.6720 -0.5857
vn 0.4661 0.8847 0.0040
vn 0.1161 0.2450 -0.9625
vn 0.4063 -0.2954 -0.8647
vn 0.0247 -0.9881 -0.1516
vn 0.9526 -0.0377 -0.3018
vn 0.9464 -0.1933 0.2587
vn 0.8572 -0.5046 -0.1027
vn 0.4159 -0.7162 -0.5604
vn 0.4759 -0.8780 0.0504
vn 0.4100 -0.1898 0.8921
vn 0.4285 -0.7585 0.4909
vn 0.9547 0.2659 -0.1333
vn 0.8844 0.4241 0.1949
vn 0.4237 0.5917 0.6858
vn 0.4790 0.8765 -0.0479
vn 0.4446 0.6836 -0.5788
vn 0.0521 0.9766 0.2086
vn 0.8924 0.2480 -0.3770
vn 0.9963 -0.0851 -0.0065
vn 0.8755 -0.3377 -0.3456
vn 0.8889 -0.4113 0.2017
vn 0.4412 -0.6807 0.5848
vn 0.4677 -0.8834 0.0299
vn 0.1161 -0.2450 0.9625
vn 0.0521 -0.9766 -0.2086
vn 0.9494 0.1344 0.2837
vn 0.4044 0.2962 0.8653
vn 0.0247 0.9881 0.1516
vn 0.4055 0.7253 0.5563
vn 0.8599 0.5015 0.0953
vn 0.4696 0.8819 -0.0420
vn 0.3625 0.1880 -0.9128
vn 0.4018 0.7800 -0.4797
vn 0.4004 -0.3020 -0.8651
vn 0.9419 0.1823 -0.2820
vn 0.9515 -0.0280 0.3064
vn 0.9435 -0.2722 -0.1889
vn 0.4158 -0.7168 -0.5597
vn 0.8530 -0.5115 0.1038
vn 0.4324 -0.7555 0.4921
vn 0.4762 -0.8792 0.0151
vn 0.4140 0.5979 0.6864
vn 0.8902 0.4359 0.1325
vn 0.4667 0.8836 -0.0366
vn 0.4344 0.6898 -0.5791
vn 0.5059 -0.2178 -0.8346
vn 0.9408 -0.2820 -0.1877
vn 0.5368 -0.7253 -0.4309
vn 0.6226 -0.7824 -0.0114
vn 0.3056 -0.9521 0.0040
vn 0.8737 -0.4816 0.0681
vn 0.5043 -0.6167 0.6044
vn 0.9560 0.0648 -0.2861
vn 0.9147 -0.0041 0.4040
vn 0.4836 0.2376 0.8424
vn 0.9752 0.2153 0.0509
vn 0.8828 0.4697 0.0000
vn 0.4547 0.7447 0.4884
vn 0.4636 0.8860 -0.0067
vn 0.4612 0.6690 -0.5828
vn 0.0869 0.9957 0.0305
vn 0.9565 0.0796 -0.2807
vn 0.9807 -0.1952 0.0062
vn 0.8742 -0.3522 -0.3343
vn 0.4823 -0.2118 -0.8500
vn 0.4287 -0.7639 -0.4823
vn 0.8639 -0.4946 0.0956
vn 0.4445 -0.6800 0.5830
vn 0.4666 -0.8845 0.0013
vn 0.2060 -0.2892 0.9348
vn 0.0869 -0.9957 -0.0305
vn 0.9134 -0.0024 0.4069
vn 0.4925 0.2332 0.8384
vn 0.1879 0.7433 0.6420
vn 0.8908 0.4544 0.0010
vn 0.5383 0.7243 0.4307
vn 0.6119 0.7909 -0.0077
vn 0.3056 0.9521 -0.0040
vn 0.5204 0.6038 -0.6038
vn 0.2118 -0.7261 0.6541
vn 0.1531 0.2592 0.9536
vn 0.1693 0.9710 0.1684
vn -0.0883 -0.2256 0.9702
vn 0.4122 -0.6107 -0.6761
vn -0.0883 0.2256 -0.9702
vn 0.4137 -0.1899 0.8904
vn 0.1353 0.2704 0.9532
vn 0.2352 -0.7024 0.6718
vn 0.1353 -0.2704 -0.9532
vn 0.2352 0.7024 -0.6718
usemtl Material
s off
f 4/1/1 1/2/1 2/3/1 3/4/1
f 6/5/2 5/6/2 8/7/2 7/8/2
f 2/3/3 1/2/3 5/6/3 6/5/3
f 3/9/4 2/10/4 6/11/4 7/12/4
f 8/13/5 4/1/5 3/4/5 7/14/5
f 8/15/6 5/16/6 1/17/6 4/18/6
f 11/19/6 12/20/6 9/21/6 10/22/6
f 15/23/4 14/24/4 13/25/4 16/26/4
f 10/27/3 9/28/3 13/25/3 14/24/3
f 11/29/1 10/30/1 14/31/1 15/32/1
f 16/26/5 12/20/5 11/19/5 15/23/5
f 16/33/2 13/34/2 9/35/2 12/36/2
f 171/37/6 172/38/6 169/39/6 170/40/6
f 175/41/4 174/42/4 173/43/4 176/44/4
f 170/45/3 169/46/3 173/43/3 174/42/3
f 171/47/1 170/48/1 174/49/1 175/50/1
f 172/38/5 171/37/5 175/41/5 176/44/5
f 176/51/2 173/52/2 169/53/2 172/54/2
f 180/55/1 177/56/1 178/57/1 179/58/1
f 182/59/2 181/60/2 184/61/2 183/62/2
f 178/57/3 177/56/3 181/60/3 182/59/3
f 179/63/4 178/64/4 182/65/4 183/66/4
f 180/55/5 179/58/5 183/67/5 184/68/5
f 184/69/6 181/70/6 177/71/6 180/72/6
s 1
f 32/73/7 28/74/8 24/75/9
f 32/73/7 24/75/9 19/76/10
f 18/77/11 20/78/12 22/79/13
f 19/76/10 24/75/9 23/80/14
f 23/80/14 25/81/15 21/82/16
f 24/75/9 28/74/8 23/80/14
f 28/74/8 27/83/17 25/81/15
f 27/83/17 30/84/18 31/85/19
f 30/84/18 32/73/7 35/86/20
f 35/86/20 36/87/21 33/88/22
f 17/89/23 18/77/11 37/90/24
f 58/91/25 38/92/26 41/93/27
f 53/94/28 49/95/29 46/96/9
f 53/94/28 46/96/9 39/97/30
f 38/92/26 39/97/30 40/98/31
f 40/98/31 42/99/32 43/100/33
f 39/97/30 46/96/9 44/101/34
f 44/101/34 45/102/35 42/99/32
f 42/99/32 45/102/35 43/100/33
f 46/96/9 49/95/29 44/101/34
f 48/103/36 50/104/37 47/105/38
f 50/104/37 52/106/39 56/107/40
f 51/108/41 53/94/28 55/109/42
f 55/109/42 57/110/43 54/111/44
f 57/110/43 58/91/25 56/107/40
f 53/94/28 38/92/26 57/110/43
f 75/112/45 59/113/46 64/114/47
f 68/115/48 65/116/49 61/117/50
f 60/118/51 61/117/50 62/119/52
f 65/116/49 66/120/53 63/121/54
f 65/116/49 68/115/48 73/122/55
f 65/116/49 73/122/55 70/123/56
f 69/124/57 70/123/56 71/125/58
f 74/126/59 75/112/45 72/127/60
f 92/128/45 76/129/46 81/130/47
f 85/131/48 82/132/49 78/133/50
f 77/134/51 78/133/50 79/135/52
f 82/132/49 83/136/53 80/137/54
f 82/132/49 85/131/48 90/138/55
f 82/132/49 90/138/55 87/139/56
f 86/140/57 87/139/56 88/141/58
f 91/142/59 92/128/45 89/143/60
f 109/144/61 102/145/62 94/146/63
f 94/146/63 102/145/62 98/147/64
f 98/147/64 99/148/65 96/149/66
f 99/148/65 101/150/67 97/151/68
f 102/145/62 104/152/69 98/147/64
f 101/150/67 100/153/70 108/154/71
f 103/155/72 105/156/73 106/157/74
f 104/152/69 109/144/61 105/156/73
f 109/144/61 93/158/75 107/159/76
f 127/160/45 111/161/77 116/162/47
f 122/163/78 120/164/79 117/165/80
f 111/161/77 117/165/80 112/166/81
f 114/167/82 115/168/83 113/169/84
f 117/165/80 120/164/79 114/167/82
f 121/170/85 124/171/86 123/172/87
f 124/171/86 126/173/88 123/172/87
f 126/173/88 127/160/45 125/174/60
f 122/163/78 111/161/77 126/173/88
f 147/175/25 128/176/89 130/177/27
f 128/176/89 133/178/90 129/179/91
f 129/179/91 131/180/92 132/181/93
f 134/182/94 135/183/95 131/180/92
f 131/180/92 135/183/95 132/181/93
f 133/178/90 139/184/96 137/185/97
f 133/178/90 137/185/97 134/182/94
f 137/185/97 138/186/98 135/183/95
f 137/185/97 139/184/96 142/187/99
f 137/185/97 142/187/99 144/188/100
f 141/189/101 144/188/100 143/190/102
f 144/188/100 146/191/103 143/190/102
f 146/191/103 147/175/25 145/192/104
f 142/187/99 139/184/96 144/188/100
f 139/184/96 128/176/89 146/191/103
f 160/193/105 153/194/106 150/195/107
f 148/196/108 150/195/107 151/197/109
f 150/195/107 153/194/106 154/198/110
f 154/198/110 156/199/111 152/200/112
f 156/199/111 159/201/113 155/202/114
f 153/194/106 160/193/105 157/203/115
f 153/194/106 157/203/115 154/198/110
f 157/203/115 158/204/116 156/199/111
f 159/201/113 158/204/116 161/205/117
f 157/203/115 160/193/105 163/206/99
f 157/203/115 163/206/99 166/207/118
f 162/208/119 164/209/120 165/210/121
f 162/208/119 166/207/118 164/209/120
f 166/207/118 167/211/122 164/209/120
f 164/209/120 167/211/122 165/210/121
f 163/206/99 160/193/105 166/207/118
f 160/193/105 148/196/108 167/211/122
f 19/76/10 20/78/12 17/89/23 32/73/7
f 18/77/11 17/89/23 20/78/12
f 23/80/14 21/82/16 20/78/12 19/76/10
f 26/212/123 22/79/13 21/82/16 25/81/15
f 22/79/13 20/78/12 21/82/16
f 29/213/124 26/212/123 25/81/15 27/83/17
f 23/80/14 28/74/8 25/81/15
f 31/85/19 34/214/125 29/213/124 27/83/17
f 27/83/17 28/74/8 30/84/18
f 30/84/18 28/74/8 32/73/7
f 35/86/20 33/88/22 31/85/19 30/84/18
f 34/214/125 31/85/19 33/88/22
f 37/90/24 34/214/125 33/88/22 36/87/21
f 17/89/23 36/87/21 35/86/20 32/73/7
f 36/87/21 17/89/23 37/90/24
f 44/101/34 42/99/32 40/98/31 39/97/30
f 38/92/26 53/94/28 39/97/30
f 41/93/27 38/92/26 40/98/31
f 48/103/36 45/102/35 44/101/34 49/95/29
f 41/93/27 40/98/31 43/100/33
f 43/100/33 45/102/35 47/105/38
f 51/108/41 52/106/39 48/103/36 49/95/29
f 45/102/35 48/103/36 47/105/38
f 50/104/37 48/103/36 52/106/39
f 55/109/42 54/111/44 52/106/39 51/108/41
f 51/108/41 49/95/29 53/94/28
f 56/107/40 52/106/39 54/111/44
f 61/117/50 60/118/51 59/113/46 68/115/48
f 54/111/44 57/110/43 56/107/40
f 55/109/42 53/94/28 57/110/43
f 57/110/43 38/92/26 58/91/25
f 64/114/47 59/113/46 60/118/51
f 63/121/54 62/119/52 61/117/50 65/116/49
f 64/114/47 60/118/51 62/119/52
f 62/119/52 63/121/54 64/114/47
f 67/215/126 64/114/47 63/121/54 66/120/53
f 69/124/57 72/127/60 67/215/126 66/120/53
f 70/123/56 69/124/57 66/120/53 65/116/49
f 74/126/59 71/125/58 70/123/56 73/122/55
f 72/127/60 69/124/57 71/125/58
f 59/113/46 74/126/59 73/122/55 68/115/48
f 71/125/58 74/126/59 72/127/60
f 78/133/50 77/134/51 76/129/46 85/131/48
f 74/126/59 59/113/46 75/112/45
f 81/130/47 76/129/46 77/134/51
f 80/137/54 79/135/52 78/133/50 82/132/49
f 81/130/47 77/134/51 79/135/52
f 79/135/52 80/137/54 81/130/47
f 84/216/126 81/130/47 80/137/54 83/136/53
f 86/140/57 89/143/60 84/216/126 83/136/53
f 87/139/56 86/140/57 83/136/53 82/132/49
f 91/142/59 88/141/58 87/139/56 90/138/55
f 89/143/60 86/140/57 88/141/58
f 76/129/46 91/142/59 90/138/55 85/131/48
f 88/141/58 91/142/59 89/143/60
f 95/217/127 97/151/68 110/218/128 93/158/75
f 91/142/59 76/129/46 92/128/45
f 94/146/63 95/217/127 93/158/75 109/144/61
f 98/147/64 96/149/66 95/217/127 94/146/63
f 100/153/70 99/148/65 98/147/64 104/152/69
f 97/151/68 95/217/127 96/149/66
f 96/149/66 99/148/65 97/151/68
f 99/148/65 100/153/70 101/150/67
f 105/156/73 103/155/72 100/153/70 104/152/69
f 107/159/76 106/157/74 105/156/73 109/144/61
f 108/154/71 100/153/70 103/155/72
f 108/154/71 103/155/72 106/157/74
f 110/218/128 108/154/71 107/159/76 93/158/75
f 106/157/74 107/159/76 108/154/71
f 114/167/82 113/169/84 112/166/81 117/165/80
f 104/152/69 102/145/62 109/144/61
f 111/161/77 122/163/78 117/165/80
f 116/162/47 111/161/77 112/166/81
f 118/219/129 115/168/83 114/167/82 120/164/79
f 116/162/47 112/166/81 113/169/84
f 113/169/84 115/168/83 116/162/47
f 119/220/126 116/162/47 115/168/83 118/219/129
f 121/170/85 125/174/60 119/220/126 118/219/129
f 124/171/86 121/170/85 118/219/129 120/164/79
f 134/182/94 131/180/92 129/179/91 133/178/90
f 124/171/86 120/164/79 122/163/78
f 125/174/60 121/170/85 123/172/87
f 123/172/87 126/173/88 125/174/60
f 124/171/86 122/163/78 126/173/88
f 126/173/88 111/161/77 127/160/45
f 128/176/89 139/184/96 133/178/90
f 130/177/27 128/176/89 129/179/91
f 140/221/130 136/222/131 135/183/95 138/186/98
f 130/177/27 129/179/91 132/181/93
f 132/181/93 135/183/95 136/222/131
f 134/182/94 137/185/97 135/183/95
f 144/188/100 141/189/101 138/186/98 137/185/97
f 141/189/101 145/192/104 140/221/130 138/186/98
f 151/197/109 155/202/114 149/223/132 148/196/108
f 145/192/104 141/189/101 143/190/102
f 143/190/102 146/191/103 145/192/104
f 144/188/100 139/184/96 146/191/103
f 146/191/103 128/176/89 147/175/25
f 148/196/108 160/193/105 150/195/107
f 154/198/110 152/200/112 151/197/109 150/195/107
f 166/207/118 162/208/119 158/204/116 157/203/115
f 155/202/114 151/197/109 152/200/112
f 152/200/112 156/199/111 155/202/114
f 154/198/110 157/203/115 156/199/111
f 156/199/111 158/204/116 159/201/113
f 149/223/132 168/224/133 167/211/122 148/196/108
f 161/205/117 158/204/116 162/208/119
f 161/205/117 162/208/119 165/210/121
f 165/210/121 167/211/122 168/224/133
f 166/207/118 160/193/105 167/211/122
